# xmcd CD database file
#
# Track frame offsets:
#	183
#	23650
#	39018
#	56005
#	70883
#	88175
#	107850
#	124653
#
# Disc length: 1878 seconds
#
# Revision: 0
# Processed by: cddbd v1.5.2PL0 Copyright (c) Steve Scherf et al.
# Submitted via: CDex 1.51
#
DISCID=62075408
DTITLE=Le Groupe Mistral - "J"
DYEAR=1995
DGENRE=Jazz
TTITLE0="Souvenirs, souvenirs"
TTITLE1=Pa quite mwen
TTITLE2=La fourté pa mal
TTITLE3=Sa ki ke vle
TTITLE4=Décré w ti bwen
TTITLE5=Kozé "Toujou"
TTITLE6=Lélé mwen mwen!
TTITLE7=On stop
EXTD=YEAR: 1995
EXTT0=
EXTT1=
EXTT2=
EXTT3=
EXTT4=
EXTT5=
EXTT6=
EXTT7=
PLAYORDER=
